<svg width="36" height="36" viewBox="0 0 36 36" fill="none" xmlns="http://www.w3.org/2000/svg">
<path d="M36 32C36 33.0609 35.5786 34.0783 34.8284 34.8284C34.0783 35.5786 33.0609 36 32 36H4C2.93913 36 1.92172 35.5786 1.17157 34.8284C0.421427 34.0783 0 33.0609 0 32V4C0 2.93913 0.421427 1.92172 1.17157 1.17157C1.92172 0.421427 2.93913 0 4 0L32 0C33.0609 0 34.0783 0.421427 34.8284 1.17157C35.5786 1.92172 36 2.93913 36 4V32Z" fill="#009393"/>
<path d="M12.2188 9.62083C12.2188 8.07083 12.9938 6.92383 14.6368 6.92383H22.3258C23.8138 6.92383 24.5278 7.97783 24.5278 9.06383C24.5278 10.1178 23.7838 11.2028 22.3258 11.2028H16.8698V15.7298H21.9548C23.4748 15.7298 24.2188 16.7838 24.2188 17.8698C24.2188 18.9238 23.4438 20.0088 21.9548 20.0088H16.8698V24.7218H22.6058C24.0938 24.7218 24.8067 25.7768 24.8067 26.8618C24.8067 27.9168 24.0628 29.0018 22.6058 29.0018H14.6068C13.2428 29.0018 12.2198 28.0718 12.2198 26.6768V9.62083H12.2188Z" fill="white"/>
</svg>
